<?xml version="1.0" encoding="UTF-8"?>
<svg version="1.1" xmlns="http://www.w3.org/2000/svg" width="1277" height="401">
<path d="M0 0 C1.73716782 -0.00101212 1.73716782 -0.00101212 3.50942993 -0.00204468 C22.27176805 0.01527824 40.57903717 0.75413225 59.1875 3.25 C60.47897949 3.41628906 61.77045898 3.58257812 63.10107422 3.75390625 C121.01670777 11.28656221 175.19969693 29.15690645 229.75 49.4375 C273.36888116 65.64220967 317.34675898 80.76308455 362.1875 93.25 C362.98665833 93.47391418 363.78581665 93.69782837 364.60919189 93.92852783 C420.12956895 109.47548045 476.84582467 120.26941435 534.1875 126.25 C534.92967773 126.32778687 535.67185547 126.40557373 536.43652344 126.48571777 C625.7035428 135.75873129 715.95815148 131.65148002 1111.87744141 28.29345703 C1112.65702713 27.96902115 1113.43661285 27.64458527 1114.23982239 27.31031799 C1115.75194389 26.68042296 1117.26281443 26.04751431 1118.77226257 25.41123962 C1123.96414406 23.25 1123.96414406 23.25 1126.1875 23.25 C1126.1875 147.99 1126.1875 272.73 1126.1875 401.25 C704.7775 401.25 283.3675 401.25 -150.8125 401.25 C-150.8125 281.46 -150.8125 161.67 -150.8125 38.25 C-134.17605148 27.55514024 -134.17605148 27.55514024 -128.3125 24.8125 C-127.54462158 24.4525293 -126.77674316 24.09255859 -125.9855957 23.72167969 C-86.29286338 5.8317816 -43.17059587 0.02260983 0 0 Z " fill="#136469" transform="translate(150.8125,-0.25)"/>
</svg>
